<svg width="64" height="64" viewBox="0 0 64 64" fill="none" xmlns="http://www.w3.org/2000/svg">
<path d="M29 23.1642V40.8374C29 41.7191 28.6437 42.427 28.021 42.7775C27.3992 43.1281 26.621 43.0623 25.8853 42.5949L12.1306 33.8722C11.4123 33.4166 11 32.7343 11 31.9998C11 31.2654 11.4123 30.583 12.1306 30.1275L25.8843 21.4048C26.62 20.9384 27.3992 20.8716 28.02 21.2222C28.6437 21.5746 29 22.2825 29 23.1642ZM27.0564 41.0083C27.0632 40.9651 27.069 40.9081 27.069 40.8374V23.1642C27.069 23.0935 27.0632 23.0366 27.0564 22.9934C27.0159 23.0101 26.9666 23.0346 26.9077 23.0729L13.1531 31.7956C12.9899 31.8987 12.9368 31.9871 12.931 32.0106C12.9368 32.0156 12.9909 32.1039 13.1531 32.207L26.9077 40.9297C26.9666 40.966 27.0159 40.9916 27.0564 41.0083Z" fill="white"/>
<path d="M35 23.1642V40.8374C35 41.7191 35.3563 42.427 35.979 42.7775C36.6008 43.1281 37.379 43.0623 38.1147 42.5949L51.8694 33.8722C52.5877 33.4166 53 32.7343 53 31.9998C53 31.2654 52.5877 30.583 51.8694 30.1275L38.1157 21.4048C37.38 20.9384 36.6008 20.8716 35.98 21.2222C35.3563 21.5746 35 22.2825 35 23.1642ZM36.9436 41.0083C36.9368 40.9651 36.931 40.9081 36.931 40.8374V23.1642C36.931 23.0935 36.9368 23.0366 36.9436 22.9934C36.9841 23.0101 37.0334 23.0346 37.0923 23.0729L50.8469 31.7956C51.0101 31.8987 51.0632 31.9871 51.069 32.0106C51.0632 32.0156 51.0091 32.1039 50.8469 32.207L37.0923 40.9297C37.0334 40.966 36.9841 40.9916 36.9436 41.0083Z" fill="#999999"/>
</svg>
