<svg width="64" height="64" viewBox="0 0 64 64" fill="none" xmlns="http://www.w3.org/2000/svg">
<path d="M40.8358 29H23.1626C22.2809 29 21.573 28.6437 21.2225 28.021C20.8719 27.3992 20.9377 26.621 21.4051 25.8853L30.1278 12.1306C30.5834 11.4123 31.2657 11 32.0002 11C32.7346 11 33.417 11.4123 33.8725 12.1306L42.5952 25.8843C43.0616 26.62 43.1284 27.3992 42.7778 28.02C42.4254 28.6437 41.7175 29 40.8358 29ZM22.9917 27.0564C23.0349 27.0632 23.0919 27.069 23.1626 27.069H40.8358C40.9065 27.069 40.9634 27.0632 41.0066 27.0564C40.9899 27.0159 40.9654 26.9666 40.9271 26.9077L32.2044 13.1531C32.1013 12.9899 32.0129 12.9368 31.9894 12.931C31.9844 12.9368 31.8961 12.9909 31.793 13.1531L23.0703 26.9077C23.034 26.9666 23.0084 27.0159 22.9917 27.0564Z" fill="white"/>
<path d="M40.8358 35H23.1626C22.2809 35 21.573 35.3563 21.2225 35.979C20.8719 36.6008 20.9377 37.379 21.4051 38.1147L30.1278 51.8694C30.5834 52.5877 31.2657 53 32.0002 53C32.7346 53 33.417 52.5877 33.8725 51.8694L42.5952 38.1157C43.0616 37.38 43.1284 36.6008 42.7778 35.98C42.4254 35.3563 41.7175 35 40.8358 35ZM22.9917 36.9436C23.0349 36.9368 23.0919 36.931 23.1626 36.931H40.8358C40.9065 36.931 40.9634 36.9368 41.0066 36.9436C40.9899 36.9841 40.9654 37.0334 40.9271 37.0923L32.2044 50.8469C32.1013 51.0101 32.0129 51.0632 31.9894 51.069C31.9844 51.0632 31.8961 51.0091 31.793 50.8469L23.0703 37.0923C23.034 37.0334 23.0084 36.9841 22.9917 36.9436Z" fill="#999999"/>
</svg>
