<svg width="86" height="86" viewBox="0 0 86 86" fill="none" xmlns="http://www.w3.org/2000/svg">
<g clip-path="url(#clip0_9_729)">
<mask id="mask0_9_729" style="mask-type:alpha" maskUnits="userSpaceOnUse" x="0" y="0" width="86" height="86">
<path d="M0 30.0246C0 14.8691 0 9.41638 4.70819 4.70819C9.41638 0 14.8691 0 32.1495 0H53.8505C71.1308 0 76.5836 0 81.2918 4.70819C86 9.41638 86 14.8691 86 32.1495V53.8505C86 71.1308 86 76.5836 81.2918 81.2918C76.5836 86 71.1308 86 53.8505 86H32.1495C14.8691 86 9.41638 86 4.70819 81.2918C0 76.5836 0 71.1308 0 53.8505V30.0246Z" fill="white"/>
</mask>
<g mask="url(#mask0_9_729)">
<rect width="86" height="86" fill="url(#paint0_radial_9_729)"/>
<path d="M27.2021 52.7417V57.1995H29.3159C30.76 57.1995 31.6599 56.2996 31.6599 54.9601C31.6599 53.6625 30.8228 52.7417 29.3159 52.7417H27.2021Z" fill="white"/>
<path d="M42.1423 61.9294H40.4052V52.8045H42.1423C45.0514 52.8045 46.4955 54.4578 46.4955 57.3669C46.4955 60.276 45.0096 61.9294 42.1423 61.9294Z" fill="white"/>
<path fill-rule="evenodd" clip-rule="evenodd" d="M50.861 11.001L68 28.14V69C68 72.3137 65.3137 75 62 75H24C20.6863 75 18 72.3137 18 69V17.001C18 13.6873 20.6863 11.001 24 11.001H50.861ZM24 50H29.6089C32.9575 50 34.9039 52.1138 34.9039 54.9601C34.9039 57.7855 32.8947 59.9412 29.6926 59.9412H27.2021V64.7339H24V50ZM42.4144 50H37.2031V64.7339H42.4144C47.0815 64.7339 49.7604 61.9294 49.7604 57.3669C49.7604 52.8045 47.0815 50 42.4144 50ZM52.1844 64.7339H55.3865V58.9575H61.5186V56.1949H55.3865V52.8672H62V50H52.1844V64.7339Z" fill="white"/>
<path d="M50.9434 11V24.0559C50.9434 26.265 52.7342 28.0559 54.9434 28.0559H67.9992L50.9434 11Z" fill="#FF9696"/>
</g>
</g>
<defs>
<radialGradient id="paint0_radial_9_729" cx="0" cy="0" r="1" gradientUnits="userSpaceOnUse" gradientTransform="rotate(45) scale(121.622)">
<stop stop-color="#E1542E"/>
<stop offset="1" stop-color="#E12E54"/>
</radialGradient>
<clipPath id="clip0_9_729">
<rect width="86" height="86" fill="white"/>
</clipPath>
</defs>
</svg>
